<?xml version="1.0" encoding="UTF-8"?><svg id="Layer_1" xmlns="http://www.w3.org/2000/svg" xmlns:xlink="http://www.w3.org/1999/xlink" viewBox="0 0 1523.83 993.26"><defs><style>.cls-1{stroke:url(#linear-gradient-3);}.cls-1,.cls-2,.cls-3,.cls-4,.cls-5,.cls-6,.cls-7{fill:none;stroke-miterlimit:10;}.cls-1,.cls-7{stroke-width:1.48px;}.cls-8{fill:#bbbdbf;}.cls-8,.cls-9,.cls-10,.cls-11,.cls-12,.cls-13,.cls-14,.cls-15,.cls-16,.cls-17,.cls-18,.cls-19,.cls-20,.cls-21,.cls-22,.cls-23,.cls-24,.cls-25,.cls-26,.cls-27,.cls-28,.cls-29{stroke-width:0px;}.cls-30{filter:url(#drop-shadow-10);}.cls-9,.cls-18{fill:#0f68ea;}.cls-31{filter:url(#drop-shadow-7);}.cls-10{fill:#929497;}.cls-11{filter:url(#drop-shadow-12);}.cls-11,.cls-19,.cls-24,.cls-25{fill:#fff;}.cls-12{fill:#d0d2d3;}.cls-13,.cls-14,.cls-15,.cls-26{opacity:.56;}.cls-13,.cls-21{fill:#a6a8ab;}.cls-14{fill:url(#linear-gradient);}.cls-15{fill:url(#linear-gradient-5);}.cls-16{fill:#e6e7e8;}.cls-17{fill:#000a3b;}.cls-2,.cls-4{stroke-width:2px;}.cls-2,.cls-5{stroke:#e1e5ea;}.cls-18{opacity:.3;}.cls-3{stroke:url(#linear-gradient-2);stroke-width:1.31px;}.cls-4{stroke:#a6a8ab;}.cls-20{fill:url(#linear-gradient-7);}.cls-5{stroke-width:1.43px;}.cls-6{stroke:#fff;stroke-width:1.41px;}.cls-32{clip-path:url(#clippath);}.cls-7{stroke:url(#linear-gradient-4);}.cls-22{fill:#ef3e6a;}.cls-23{fill:#e1e5ea;}.cls-24{filter:url(#drop-shadow-11);}.cls-25{filter:url(#drop-shadow-9);}.cls-26{fill:url(#linear-gradient-6);}.cls-27,.cls-33{fill:#f2f2f2;}.cls-28{fill:#efefef;}.cls-29{fill:#f7f8f9;filter:url(#drop-shadow-8);}</style><linearGradient id="linear-gradient" x1="319.1" y1="975.31" x2="1779.51" y2="-321.82" gradientUnits="userSpaceOnUse"><stop offset="0" stop-color="#fff" stop-opacity="0"/><stop offset="1" stop-color="#0f68ea"/></linearGradient><linearGradient id="linear-gradient-2" x1="-2002.28" y1="3160.65" x2="-1009.02" y2="3160.65" gradientTransform="translate(-1746.03 -1009.02) rotate(-90)" gradientUnits="userSpaceOnUse"><stop offset="0" stop-color="#0f68ea" stop-opacity="0"/><stop offset=".09" stop-color="#0f68ea"/><stop offset=".87" stop-color="#0f68ea"/><stop offset=".9" stop-color="#1169ea" stop-opacity=".99"/><stop offset=".92" stop-color="#1a6eea" stop-opacity=".95"/><stop offset=".94" stop-color="#2878ec" stop-opacity=".89"/><stop offset=".95" stop-color="#3d84ee" stop-opacity=".81"/><stop offset=".96" stop-color="#5795f0" stop-opacity=".7"/><stop offset=".97" stop-color="#78aaf3" stop-opacity=".56"/><stop offset=".98" stop-color="#9fc2f6" stop-opacity=".4"/><stop offset=".99" stop-color="#cbdefa" stop-opacity=".22"/><stop offset="1" stop-color="#fcfdfe" stop-opacity=".01"/><stop offset="1" stop-color="#fff" stop-opacity="0"/></linearGradient><linearGradient id="linear-gradient-3" x1="389.17" y1="-254.28" x2="1657.63" y2="-254.28" gradientTransform="translate(-133.8 327.12)" gradientUnits="userSpaceOnUse"><stop offset="0" stop-color="#0f68ea" stop-opacity="0"/><stop offset=".58" stop-color="#0f68ea"/><stop offset=".87" stop-color="#0f68ea"/><stop offset=".9" stop-color="#1169ea" stop-opacity=".99"/><stop offset=".92" stop-color="#1a6eea" stop-opacity=".95"/><stop offset=".94" stop-color="#2878ec" stop-opacity=".89"/><stop offset=".95" stop-color="#3d84ee" stop-opacity=".81"/><stop offset=".96" stop-color="#5795f0" stop-opacity=".7"/><stop offset=".97" stop-color="#78aaf3" stop-opacity=".56"/><stop offset=".98" stop-color="#9fc2f6" stop-opacity=".4"/><stop offset=".99" stop-color="#cbdefa" stop-opacity=".22"/><stop offset="1" stop-color="#fcfdfe" stop-opacity=".01"/><stop offset="1" stop-color="#fff" stop-opacity="0"/></linearGradient><linearGradient id="linear-gradient-4" x1="389.17" y1="607.66" x2="1657.63" y2="607.66" gradientTransform="translate(-133.8 327.12)" gradientUnits="userSpaceOnUse"><stop offset="0" stop-color="#0f68ea" stop-opacity="0"/><stop offset=".44" stop-color="#0f68ea"/><stop offset=".87" stop-color="#0f68ea"/><stop offset=".9" stop-color="#1169ea" stop-opacity=".99"/><stop offset=".92" stop-color="#1a6eea" stop-opacity=".95"/><stop offset=".94" stop-color="#2878ec" stop-opacity=".89"/><stop offset=".95" stop-color="#3d84ee" stop-opacity=".81"/><stop offset=".96" stop-color="#5795f0" stop-opacity=".7"/><stop offset=".97" stop-color="#78aaf3" stop-opacity=".56"/><stop offset=".98" stop-color="#9fc2f6" stop-opacity=".4"/><stop offset=".99" stop-color="#cbdefa" stop-opacity=".22"/><stop offset="1" stop-color="#fcfdfe" stop-opacity=".01"/><stop offset="1" stop-color="#fff" stop-opacity="0"/></linearGradient><linearGradient id="linear-gradient-5" x1="241.68" y1="882.55" x2="1495.73" y2="36.69" xlink:href="#linear-gradient"/><linearGradient id="linear-gradient-6" x1="74.24" y1="965.22" x2="1208.1" y2="201" xlink:href="#linear-gradient"/><filter id="drop-shadow-7" filterUnits="userSpaceOnUse"><feOffset dx="5" dy="5"/><feGaussianBlur result="blur" stdDeviation="5"/><feFlood flood-color="#000" flood-opacity=".15"/><feComposite in2="blur" operator="in"/><feComposite in="SourceGraphic"/></filter><clipPath id="clippath"><rect class="cls-27" x="213.27" y="255.53" width="1012.24" height="632.65"/></clipPath><filter id="drop-shadow-8" filterUnits="userSpaceOnUse"><feOffset dx="5.05" dy="3.95"/><feGaussianBlur result="blur-2" stdDeviation="4.04"/><feFlood flood-color="#000a3b" flood-opacity=".2"/><feComposite in2="blur-2" operator="in"/><feComposite in="SourceGraphic"/></filter><filter id="drop-shadow-9" filterUnits="userSpaceOnUse"><feOffset dx="0" dy="3.12"/><feGaussianBlur result="blur-3" stdDeviation="3.12"/><feFlood flood-color="#000a3b" flood-opacity=".1"/><feComposite in2="blur-3" operator="in"/><feComposite in="SourceGraphic"/></filter><filter id="drop-shadow-10" filterUnits="userSpaceOnUse"><feOffset dx="4.35" dy="4.35"/><feGaussianBlur result="blur-4" stdDeviation="4.35"/><feFlood flood-color="#000" flood-opacity=".15"/><feComposite in2="blur-4" operator="in"/><feComposite in="SourceGraphic"/></filter><filter id="drop-shadow-11" filterUnits="userSpaceOnUse"><feOffset dx="2.95" dy="2.06"/><feGaussianBlur result="blur-5" stdDeviation="2.06"/><feFlood flood-color="#000a3b" flood-opacity=".1"/><feComposite in2="blur-5" operator="in"/><feComposite in="SourceGraphic"/></filter><linearGradient id="linear-gradient-7" x1="357.09" y1="417.42" x2="595.2" y2="417.42" gradientUnits="userSpaceOnUse"><stop offset="0" stop-color="#cce0f4"/><stop offset=".07" stop-color="#c2daf3"/><stop offset=".18" stop-color="#a9c9f2"/><stop offset=".32" stop-color="#7fafef"/><stop offset=".49" stop-color="#468bec"/><stop offset=".63" stop-color="#0f68ea"/><stop offset="1" stop-color="#000a3b"/></linearGradient><filter id="drop-shadow-12" filterUnits="userSpaceOnUse"><feOffset dx="2" dy="2"/><feGaussianBlur result="blur-6" stdDeviation="3"/><feFlood flood-color="#000" flood-opacity=".2"/><feComposite in2="blur-6" operator="in"/><feComposite in="SourceGraphic"/></filter></defs><rect class="cls-14" x="285.3" y="72.84" width="1129.31" height="861.94"/><line class="cls-3" x1="1414.62" y1="993.26" x2="1414.62"/><line class="cls-1" x1="255.37" y1="72.84" x2="1523.83" y2="72.84"/><line class="cls-7" x1="255.37" y1="934.78" x2="1523.83" y2="934.78"/><rect class="cls-15" x="233.06" y="139" width="1111.28" height="749.19"/><rect class="cls-26" x="179.97" y="203.3" width="1098.39" height="641.01"/><g class="cls-31"><rect class="cls-33" x="213.27" y="255.53" width="1012.24" height="632.65"/><g class="cls-32"><polygon class="cls-12" points="125.91 676.95 10.05 676.95 714.63 970.52 1362.51 970.52 1362.51 708.49 852.37 702.31 125.91 676.95"/><path class="cls-16" d="m125.91,684.57l-7.48.75s59.46,4.91,64.67,5.94c5.21,1.03,70.99,9.47,70.99,9.47l149.74,18.11,310.27,17.09,279.43,3.08c10.4.11,48.02-5.03,12.44-20.11l-35.85-15.25-844.21-19.09Z"/><polygon class="cls-16" points="380.79 679.06 396.25 678.02 322.5 683.54 324.95 583.7 380.79 560.34 380.79 679.06"/><polygon class="cls-16" points="474.19 521.25 474.19 672.19 455.11 673.62 437.3 674.95 416.68 676.49 403.82 677.45 396.25 678.02 397.91 553.17 474.19 521.25"/><polygon class="cls-8" points="327.34 582.7 327.34 554.14 374.47 530.04 374.35 563.03 327.34 582.7"/><polygon class="cls-8" points="723.13 351.33 723.13 416.48 374.35 563.03 374.47 530.05 380.79 532.3 398.32 522.04 398.32 517.91 467.26 482.83 474.19 484.98 504.74 469.42 504.74 463.76 723.13 351.33"/><polygon class="cls-8" points="416.68 564.12 416.68 666.86 403.82 668.21 403.82 569.27 416.68 564.12"/><polygon class="cls-8" points="455.11 548.69 455.11 662.8 437.3 664.68 437.3 555.84 455.11 548.69"/><polygon class="cls-21" points="403.82 528.79 416.68 522.78 416.68 545.25 403.82 550.65 403.82 528.79"/><polygon class="cls-21" points="455.11 504.82 455.11 529.1 437.3 536.58 437.3 513.15 455.11 504.82"/><polygon class="cls-21" points="374.47 530.04 380.79 532.3 380.79 679.05 374.35 679.66 374.47 530.04"/><polygon class="cls-21" points="467.26 482.83 467.26 672.59 474.18 672.19 474.18 484.97 467.26 482.83"/><polygon class="cls-12" points="398.32 522.04 397.91 553.17 396.25 678.02 380.79 679.06 380.79 532.3 398.32 522.04"/><polygon class="cls-8" points="504.74 469.42 504.34 508.62 502.69 670.06 474.19 672.19 474.19 484.98 504.74 469.42"/><polygon class="cls-16" points="723.13 416.48 723.13 650.8 502.69 670.06 504.34 508.41 723.13 416.48"/><polygon class="cls-8" points="572.47 506 572.47 651.67 544.55 654.6 544.55 516.16 572.47 506"/><polygon class="cls-8" points="628.81 485.49 628.81 645.78 590.01 649.84 590.01 499.62 628.81 485.49"/><polygon class="cls-8" points="689.94 463.23 689.94 639.37 645.29 644.05 645.29 479.49 689.94 463.23"/><polygon class="cls-21" points="544.55 463.23 572.47 450.09 572.47 479.79 544.55 491.52 544.55 463.23"/><polygon class="cls-21" points="590.01 441.83 628.81 423.56 628.81 456.11 590.01 472.41 590.01 441.83"/><polygon class="cls-21" points="689.94 394.79 689.94 430.42 645.29 449.19 645.29 415.81 689.94 394.79"/><polygon class="cls-12" points="579.02 704.3 572.47 707.27 572.47 704.3 579.02 704.3"/><polygon class="cls-12" points="723.13 725.33 723.13 650.8 322.5 683.54 322.5 699.06 453.17 716.23 723.13 725.33"/><polygon class="cls-12" points="309.99 560.85 309.99 698.93 265.12 697.73 265.12 582.18 309.99 560.85"/><polygon class="cls-12" points="240.88 590.23 240.88 691.26 255.76 694.38 254.08 586.07 240.88 590.23"/><polygon class="cls-8" points="254.08 586.07 258.73 587.56 258.73 693.2 255.76 694.38 254.08 586.07"/><polygon class="cls-8" points="309.99 560.85 314.32 565.62 314.11 697.96 309.99 698.93 309.99 560.85"/><polygon class="cls-12" points="314.32 565.62 327.34 558.63 327.34 582.7 324.95 583.7 322.5 683.54 322.5 699.06 314.11 697.96 314.32 565.62"/><polygon class="cls-12" points="258.73 587.56 265.12 584.61 265.12 694.38 258.73 693.2 258.73 587.56"/><polygon class="cls-21" points="748.34 443.74 761.82 438.54 761.82 650.8 751.43 650.8 751.43 463.23 748.34 458.14 748.34 443.74"/><polygon class="cls-21" points="761.82 438.54 806.41 530.04 806.41 653.07 786.01 650.8 761.82 650.8 761.82 438.54"/><polygon class="cls-8" points="761.82 478.65 806.41 543.27 806.41 653.07 790.35 650.8 761.82 650.8 761.82 478.65"/><polygon class="cls-21" points="766.79 505.67 776.37 517.14 776.37 640.98 766.79 640.41 766.79 505.67"/><polygon class="cls-21" points="790.35 533.88 790.35 641.84 780.76 641.25 780.76 522.4 790.35 533.88"/><polygon class="cls-21" points="802.73 548.71 802.73 642.58 794.74 642.1 794.74 539.14 802.73 548.71"/><polygon class="cls-8" points="723.13 416.48 751.43 463.23 751.43 650.8 723.13 650.8 723.13 416.48"/><polygon class="cls-21" points="723.13 351.33 748.34 410.48 748.34 458.14 723.13 416.48 723.13 351.33"/><polygon class="cls-10" points="852.37 722.37 786.01 725.33 786.01 650.8 850.68 657.16 852.37 722.37"/><rect class="cls-21" x="723.13" y="650.8" width="62.88" height="74.53"/><polygon class="cls-10" points="742.75 476.88 742.75 638.94 731.35 638.25 731.35 463.23 742.75 476.88"/><polygon class="cls-21" points="742.75 476.88 742.75 638.94 731.35 638.25 731.35 463.23 742.75 476.88"/><polygon class="cls-10" points="728.6 425.51 728.6 394.79 738.94 414.52 738.94 442.6 728.6 425.51"/><polygon class="cls-16" points="10.05 688.86 522.82 970.52 733.77 970.52 680.98 932.9 10.05 676.95 10.05 688.86"/><path class="cls-12" d="m365.99,188.87c.27,0,.53.02.78.05-.23,0-.46-.02-.68-.02-.32-.01-.64-.02-.95-.03.29,0,.57,0,.85,0Z"/><path class="cls-12" d="m379.96,190.87c-2.52.2-5.01,0-7.47-.44-1.82-.74-3.68-1.34-5.72-1.51,4.47.16,9.33.49,13.19,1.95Z"/><path class="cls-16" d="m946.41,656.04c-.07.27-.13.51-.18.73-1.26-.29-2.52-.49-3.79-.62,1.41-.28,2.72-.29,3.97-.1Z"/><path class="cls-12" d="m872.42,567.05c.53.14,1.1.36,1.69.63-.04.15-.08.3-.12.46-.62-.42-1-.55-1.57-1.08Z"/><path class="cls-8" d="m405.64,387.41c-.66.73-1.41,1.39-2.24,1.97.58-.6,1.21-1.43,2.24-1.97Z"/><path class="cls-16" d="m942.44,656.15c-.55.12-1.11.27-1.69.48-.01-.21-.03-.41-.05-.62.58.04,1.16.08,1.74.14Z"/><path class="cls-12" d="m927.37,655.62c1.14.59,2.34,1.35,3.52,2-.92.19-1.97.18-3.12,0-.16-.08-.31-.16-.47-.25.02-.58.04-1.17.07-1.77Z"/><path class="cls-12" d="m1002.44,573.88c.03-.49.34-.88,1.01-1.28-.19.45-.54.88-1.01,1.28Z"/></g><polygon class="cls-18" points="328.66 627.13 395.87 612.44 395.95 609.22 718.32 523.39 784.98 576.76 785.65 563.19 718.32 463.04 396.52 585.8 396.36 588.85 328.66 611.69 328.66 627.13"/><polygon class="cls-6" points="328.66 611.69 396.36 588.85 396.52 585.8 718.32 463.04 785.65 563.19 784.98 576.76 718.32 523.39 395.95 609.22 395.87 612.44 328.66 627.13 328.66 611.69"/></g><rect class="cls-29" x="839.41" y="311" width="348.87" height="515.21"/><rect class="cls-25" x="839.41" y="311" width="348.87" height="45.31"/><rect class="cls-27" x="856.39" y="319.96" width="75.23" height="26.78"/><rect class="cls-27" x="939.92" y="319.96" width="82.23" height="26.78"/><rect class="cls-28" x="1033.6" y="334.31" width="5.68" height="5.68"/><rect class="cls-28" x="1033.6" y="341.06" width="5.68" height="5.68"/><rect class="cls-28" x="1040.74" y="334.31" width="5.68" height="5.68"/><rect class="cls-28" x="1040.74" y="341.06" width="5.68" height="5.68"/><rect class="cls-9" x="1057.2" y="334.31" width="3.11" height="3.11"/><rect class="cls-9" x="1062.19" y="334.31" width="10.04" height="3.11"/><rect class="cls-9" x="1057.2" y="338.97" width="3.11" height="3.11"/><rect class="cls-9" x="1062.19" y="338.97" width="10.04" height="3.11"/><rect class="cls-9" x="1057.2" y="343.63" width="3.11" height="3.11"/><rect class="cls-9" x="1062.19" y="343.63" width="10.04" height="3.11"/><rect class="cls-23" x="856.39" y="374.84" width="19.41" height="7.52"/><rect class="cls-23" x="900.86" y="374.84" width="20.23" height="7.52"/><rect class="cls-23" x="950.87" y="374.84" width="40.47" height="7.52"/><rect class="cls-23" x="839.61" y="399.23" width="348.66" height="41.47"/><rect class="cls-23" x="1023.34" y="374.84" width="40.47" height="7.52"/><rect class="cls-23" x="1097.6" y="369.55" width="72.78" height="17.89" rx="8.95" ry="8.95"/><line class="cls-5" x1="839.61" y1="399.23" x2="1188.28" y2="399.23"/><rect class="cls-21" x="856.39" y="416.31" width="19.41" height="7.52"/><rect class="cls-21" x="900.86" y="416.31" width="20.23" height="7.52"/><rect class="cls-21" x="950.87" y="416.31" width="40.47" height="7.52"/><rect class="cls-21" x="1023.34" y="416.31" width="40.47" height="7.52"/><rect class="cls-9" x="1097.6" y="411.02" width="72.78" height="17.89" rx="8.95" ry="8.95"/><line class="cls-5" x1="839.61" y1="440.71" x2="1188.28" y2="440.71"/><rect class="cls-23" x="856.39" y="457.78" width="19.41" height="7.52"/><rect class="cls-23" x="900.86" y="457.78" width="20.23" height="7.52"/><rect class="cls-23" x="950.87" y="457.78" width="40.47" height="7.52"/><rect class="cls-23" x="1023.34" y="457.78" width="40.47" height="7.52"/><rect class="cls-23" x="1097.6" y="452.5" width="72.78" height="17.89" rx="8.95" ry="8.95"/><line class="cls-5" x1="839.61" y1="482.18" x2="1188.28" y2="482.18"/><rect class="cls-23" x="856.39" y="499.26" width="19.41" height="7.52"/><rect class="cls-23" x="900.86" y="499.26" width="20.23" height="7.52"/><rect class="cls-23" x="950.87" y="499.26" width="40.47" height="7.52"/><rect class="cls-23" x="1023.34" y="499.26" width="40.47" height="7.52"/><rect class="cls-23" x="1097.6" y="493.97" width="72.78" height="17.89" rx="8.95" ry="8.95"/><line class="cls-5" x1="839.61" y1="523.65" x2="1188.28" y2="523.65"/><rect class="cls-23" x="856.39" y="540.73" width="19.41" height="7.52"/><rect class="cls-23" x="900.86" y="540.73" width="20.23" height="7.52"/><rect class="cls-23" x="950.87" y="540.73" width="40.47" height="7.52"/><rect class="cls-23" x="1023.34" y="540.73" width="40.47" height="7.52"/><rect class="cls-23" x="1097.6" y="535.44" width="72.78" height="17.89" rx="8.95" ry="8.95"/><line class="cls-5" x1="839.61" y1="566.59" x2="1188.28" y2="566.59"/><rect class="cls-23" x="856.39" y="583.67" width="19.41" height="7.52"/><rect class="cls-23" x="900.86" y="583.67" width="20.23" height="7.52"/><rect class="cls-23" x="950.87" y="583.67" width="40.47" height="7.52"/><rect class="cls-23" x="1023.34" y="583.67" width="40.47" height="7.52"/><rect class="cls-23" x="1097.6" y="578.39" width="72.78" height="17.89" rx="8.95" ry="8.95"/><line class="cls-5" x1="839.61" y1="609.54" x2="1188.28" y2="609.54"/><rect class="cls-23" x="856.39" y="626.61" width="19.41" height="7.52"/><rect class="cls-23" x="900.86" y="626.61" width="20.23" height="7.52"/><rect class="cls-23" x="950.87" y="626.61" width="40.47" height="7.52"/><rect class="cls-23" x="1023.34" y="626.61" width="40.47" height="7.52"/><rect class="cls-23" x="1097.6" y="621.33" width="72.78" height="17.89" rx="8.95" ry="8.95"/><line class="cls-5" x1="839.61" y1="652.48" x2="1188.28" y2="652.48"/><rect class="cls-23" x="856.39" y="669.56" width="19.41" height="7.52"/><rect class="cls-23" x="900.86" y="669.56" width="20.23" height="7.52"/><rect class="cls-23" x="950.87" y="669.56" width="40.47" height="7.52"/><rect class="cls-23" x="1023.34" y="669.56" width="40.47" height="7.52"/><rect class="cls-23" x="1097.6" y="664.27" width="72.78" height="17.89" rx="8.95" ry="8.95"/><line class="cls-5" x1="839.61" y1="695.42" x2="1188.28" y2="695.42"/><rect class="cls-23" x="856.39" y="712.5" width="19.41" height="7.52"/><rect class="cls-23" x="900.86" y="712.5" width="20.23" height="7.52"/><rect class="cls-23" x="950.87" y="712.5" width="40.47" height="7.52"/><rect class="cls-23" x="1023.34" y="712.5" width="40.47" height="7.52"/><rect class="cls-23" x="1097.6" y="707.21" width="72.78" height="17.89" rx="8.95" ry="8.95"/><line class="cls-5" x1="839.61" y1="738.36" x2="1188.28" y2="738.36"/><rect class="cls-23" x="856.39" y="755.44" width="19.41" height="7.52"/><rect class="cls-23" x="900.86" y="755.44" width="20.23" height="7.52"/><rect class="cls-23" x="950.87" y="755.44" width="40.47" height="7.52"/><rect class="cls-23" x="1023.34" y="755.44" width="40.47" height="7.52"/><rect class="cls-23" x="1097.6" y="750.16" width="72.78" height="17.89" rx="8.95" ry="8.95"/><line class="cls-5" x1="839.61" y1="781.31" x2="1188.28" y2="781.31"/><rect class="cls-23" x="856.39" y="798.38" width="19.41" height="7.52"/><rect class="cls-23" x="900.86" y="798.38" width="20.23" height="7.52"/><rect class="cls-23" x="950.87" y="798.38" width="40.47" height="7.52"/><rect class="cls-23" x="1023.34" y="798.38" width="40.47" height="7.52"/><rect class="cls-23" x="1097.6" y="793.1" width="72.78" height="17.89" rx="8.95" ry="8.95"/><rect class="cls-17" x="213.27" y="238.52" width="1012.24" height="34.02"/><circle class="cls-23" cx="234.69" cy="255.53" r="4.72"/><circle class="cls-23" cx="250.75" cy="255.53" r="4.72"/><circle class="cls-23" cx="266.81" cy="255.53" r="4.72"/><g class="cls-30"><polygon class="cls-19" points="764.64 365.17 720.34 409.46 702.86 411.34 704.74 393.86 711.98 386.62 749.03 349.56 764.64 365.17"/><path class="cls-17" d="m772.84,354l3.9-3.9c3.49-3.49,3.49-9.15,0-12.64h0c-3.49-3.49-9.15-3.49-12.64,0l-3.9,3.9-6.32-6.32-9.68,9.68,25.29,25.29,9.68-9.68-6.32-6.32Z"/></g><polygon class="cls-9" points="743.18 386.62 743.18 386.63 720.34 409.46 702.86 411.34 704.74 393.86 711.98 386.62 743.18 386.62"/><path class="cls-9" d="m702.86,442c-17.74,0,0-24.28,0-24.28,0,0,17.75,24.28,0,24.28Z"/><rect class="cls-24" x="331.51" y="314.72" width="290.9" height="133.13"/><rect class="cls-22" x="357.09" y="352.84" width="36.28" height="36.28"/><rect class="cls-9" x="407.55" y="352.84" width="36.28" height="36.28"/><rect class="cls-17" x="458.01" y="352.84" width="36.28" height="36.28"/><rect class="cls-13" x="508.46" y="352.84" width="36.28" height="36.28"/><rect class="cls-23" x="558.92" y="352.84" width="36.28" height="36.28"/><rect class="cls-20" x="357.09" y="413.46" width="238.11" height="7.94"/><circle class="cls-11" cx="448.75" cy="417.42" r="9.73"/><line class="cls-2" x1="611.3" y1="328.26" x2="600.37" y2="339.19"/><line class="cls-2" x1="600.37" y1="328.26" x2="611.3" y2="339.19"/><rect class="cls-4" x="402.64" y="347.93" width="46.11" height="46.11"/></svg>