<?xml version="1.0" encoding="UTF-8"?><svg id="Layer_1" xmlns="http://www.w3.org/2000/svg" xmlns:xlink="http://www.w3.org/1999/xlink" viewBox="0 0 1283.41 816.56"><defs><style>.cls-1{stroke:#fff;stroke-linecap:round;stroke-width:5.04px;}.cls-1,.cls-2,.cls-3,.cls-4,.cls-5,.cls-6,.cls-7{stroke-miterlimit:10;}.cls-1,.cls-2,.cls-3,.cls-4,.cls-6,.cls-7{fill:none;}.cls-2{stroke:url(#linear-gradient-7);}.cls-2,.cls-3,.cls-4,.cls-6{stroke-width:1.73px;}.cls-8,.cls-9,.cls-5,.cls-10{fill:#fff;}.cls-3{stroke:url(#linear-gradient-4);}.cls-4{stroke:url(#linear-gradient-6);}.cls-11{fill:url(#linear-gradient-2);}.cls-11,.cls-12,.cls-13{opacity:.3;}.cls-14{fill:#a6a8ab;}.cls-9{filter:url(#drop-shadow-3);}.cls-15,.cls-16{fill:#000a3b;}.cls-16{filter:url(#drop-shadow-2);}.cls-5{filter:url(#drop-shadow-4);stroke:#0f68ea;stroke-width:1.34px;}.cls-10{filter:url(#drop-shadow-1);}.cls-17{fill:#e1e5ea;}.cls-18{fill:#0f68ea;}.cls-6{stroke:url(#linear-gradient-5);}.cls-7{stroke:#e1e5ea;stroke-width:3.62px;}.cls-12{fill:url(#linear-gradient-3);}.cls-13{fill:url(#linear-gradient);}</style><linearGradient id="linear-gradient" x1="593.44" y1="1034.89" x2="627.46" y2="196.4" gradientTransform="matrix(1, 0, 0, 1, 0, 0)" gradientUnits="userSpaceOnUse"><stop offset="0" stop-color="#fff" stop-opacity="0"/><stop offset="1" stop-color="#0f68ea"/></linearGradient><linearGradient id="linear-gradient-2" x1="840.74" y1="1014.31" x2="1058.44" y2="238.75" gradientTransform="matrix(1, 0, 0, 1, 0, 0)" gradientUnits="userSpaceOnUse"><stop offset="0" stop-color="#fff" stop-opacity="0"/><stop offset="1" stop-color="#0f68ea"/></linearGradient><linearGradient id="linear-gradient-3" x1="-88.81" y1="661.41" x2="409.52" y2="212.4" gradientTransform="translate(612.1 -8.61) rotate(90)" xlink:href="#linear-gradient-2"/><filter id="drop-shadow-1" filterUnits="userSpaceOnUse"><feOffset dx="0" dy="5.32"/><feGaussianBlur result="blur" stdDeviation="5.32"/><feFlood flood-color="#000a3b" flood-opacity=".1"/><feComposite in2="blur" operator="in"/><feComposite in="SourceGraphic"/></filter><filter id="drop-shadow-2" filterUnits="userSpaceOnUse"><feOffset dx="0" dy="2.26"/><feGaussianBlur result="blur-2" stdDeviation="2.26"/><feFlood flood-color="#000a3b" flood-opacity=".1"/><feComposite in2="blur-2" operator="in"/><feComposite in="SourceGraphic"/></filter><filter id="drop-shadow-3" filterUnits="userSpaceOnUse"><feOffset dx="0" dy="3.95"/><feGaussianBlur result="blur-3" stdDeviation="3.95"/><feFlood flood-color="#000a3b" flood-opacity=".1"/><feComposite in2="blur-3" operator="in"/><feComposite in="SourceGraphic"/></filter><linearGradient id="linear-gradient-4" x1="615.12" y1="274.01" x2="1283.41" y2="274.01" gradientTransform="matrix(1, 0, 0, 1, 0, 0)" gradientUnits="userSpaceOnUse"><stop offset="0" stop-color="#0f68ea" stop-opacity="0"/><stop offset=".43" stop-color="#0f68ea"/><stop offset=".49" stop-color="#1f72eb" stop-opacity=".93"/><stop offset=".6" stop-color="#498cef" stop-opacity=".76"/><stop offset=".76" stop-color="#8db7f5" stop-opacity=".47"/><stop offset=".96" stop-color="#e9f1fd" stop-opacity=".09"/><stop offset="1" stop-color="#fff" stop-opacity="0"/></linearGradient><linearGradient id="linear-gradient-5" y1="202.35" y2="202.35" xlink:href="#linear-gradient-4"/><linearGradient id="linear-gradient-6" y1="130.69" y2="130.69" xlink:href="#linear-gradient-4"/><linearGradient id="linear-gradient-7" y1="59.03" y2="59.03" xlink:href="#linear-gradient-4"/><filter id="drop-shadow-4" filterUnits="userSpaceOnUse"><feOffset dx="5" dy="5"/><feGaussianBlur result="blur-4" stdDeviation="3"/><feFlood flood-color="#000a3b" flood-opacity=".15"/><feComposite in2="blur-4" operator="in"/><feComposite in="SourceGraphic"/></filter></defs><rect class="cls-13" x="262.13" y="117.94" width="715.82" height="522.71"/><rect class="cls-11" x="747.56" y="367.96" width="423.31" height="448.6"/><rect class="cls-12" x="89.78" y="-8.61" width="441.15" height="620.72" transform="translate(8.61 612.1) rotate(-90)"/><rect class="cls-10" x="90.62" y="11.52" width="592.96" height="435.4"/><rect class="cls-16" x="90.62" y="11.52" width="592.96" height="78.8"/><rect class="cls-17" x="133.8" y="126.04" width="58.39" height="58.39"/><rect class="cls-17" x="207.16" y="126.04" width="58.39" height="58.39"/><rect class="cls-17" x="280.53" y="126.04" width="58.39" height="58.39"/><rect class="cls-17" x="353.89" y="126.04" width="58.39" height="58.39"/><rect class="cls-17" x="427.26" y="126.04" width="58.39" height="58.39"/><rect class="cls-17" x="500.63" y="126.04" width="58.39" height="58.39"/><rect class="cls-17" x="573.99" y="126.04" width="58.39" height="58.39"/><rect class="cls-17" x="133.8" y="200.02" width="58.39" height="58.39"/><rect class="cls-17" x="207.16" y="200.02" width="58.39" height="58.39"/><rect class="cls-17" x="280.53" y="200.02" width="58.39" height="58.39"/><rect class="cls-17" x="353.89" y="200.02" width="58.39" height="58.39"/><rect class="cls-17" x="427.26" y="200.02" width="58.39" height="58.39"/><rect class="cls-17" x="500.63" y="200.02" width="58.39" height="58.39"/><rect class="cls-17" x="573.99" y="200.02" width="58.39" height="58.39"/><rect class="cls-17" x="133.8" y="274.01" width="58.39" height="58.39"/><rect class="cls-17" x="207.16" y="274.01" width="58.39" height="58.39"/><rect class="cls-17" x="280.53" y="274.01" width="58.39" height="58.39"/><rect class="cls-18" x="353.89" y="274.01" width="58.39" height="58.39"/><rect class="cls-17" x="427.26" y="274.01" width="58.39" height="58.39"/><rect class="cls-17" x="500.63" y="274.01" width="58.39" height="58.39"/><rect class="cls-17" x="573.99" y="274.01" width="58.39" height="58.39"/><rect class="cls-17" x="133.8" y="347.99" width="58.39" height="58.39"/><rect class="cls-17" x="207.16" y="347.99" width="58.39" height="58.39"/><rect class="cls-17" x="280.53" y="347.99" width="58.39" height="58.39"/><rect class="cls-17" x="353.89" y="347.99" width="58.39" height="58.39"/><rect class="cls-17" x="427.26" y="347.99" width="58.39" height="58.39"/><rect class="cls-17" x="500.63" y="347.99" width="58.39" height="58.39"/><rect class="cls-17" x="573.99" y="347.99" width="58.39" height="58.39"/><rect class="cls-9" x="572.06" y="315.17" width="325.95" height="435.4"/><path class="cls-8" d="M386.4,308.49c0-.95-.26-1.71-.79-2.27s-1.43-1.08-2.69-1.56c-1.27-.48-2.36-.95-3.28-1.42s-1.71-1.01-2.36-1.62c-.66-.61-1.17-1.33-1.53-2.15-.37-.83-.55-1.81-.55-2.95,0-1.96,.63-3.57,1.88-4.83,1.25-1.25,2.92-1.99,5-2.2v-3.73h2.79v3.78c2.06,.29,3.67,1.15,4.83,2.57,1.16,1.42,1.74,3.27,1.74,5.53h-5.04c0-1.39-.29-2.44-.86-3.13s-1.35-1.04-2.31-1.04-1.69,.27-2.21,.81c-.52,.54-.78,1.29-.78,2.24,0,.88,.26,1.59,.77,2.13s1.46,1.08,2.85,1.64c1.39,.56,2.53,1.08,3.42,1.58,.89,.49,1.65,1.05,2.27,1.67,.62,.62,1.09,1.33,1.41,2.13,.33,.8,.49,1.72,.49,2.78,0,1.98-.62,3.58-1.85,4.81-1.23,1.23-2.93,1.96-5.09,2.18v3.47h-2.77v-3.45c-2.38-.25-4.23-1.1-5.53-2.54-1.31-1.44-1.96-3.34-1.96-5.73h5.04c0,1.38,.33,2.44,.98,3.18,.66,.74,1.6,1.11,2.83,1.11,1.02,0,1.83-.27,2.42-.81,.59-.54,.89-1.27,.89-2.19Z"/><g><circle class="cls-8" cx="171.26" cy="50.92" r="3.64"/><circle class="cls-8" cx="154.77" cy="50.92" r="3.64"/><circle class="cls-8" cx="140.01" cy="50.92" r="3.64"/></g><rect class="cls-8" x="280.53" y="39.34" width="205.13" height="15.87" rx="7.94" ry="7.94"/><g><line class="cls-7" x1="876.16" y1="338.1" x2="856.38" y2="357.88"/><line class="cls-7" x1="856.38" y1="338.1" x2="876.16" y2="357.88"/></g><g><circle class="cls-18" cx="739.29" cy="397.14" r="38.35"/><polyline class="cls-1" points="719.46 399.94 731.62 412.1 759.62 384.09"/></g><g><path class="cls-14" d="M662.57,467.23h-6.65v18.08h-4.47v-18.08h-6.56v-3.62h17.68v3.62Z"/><path class="cls-14" d="M684.31,485.32h-4.47v-9.3h-8.72v9.3h-4.47v-21.71h4.47v8.8h8.72v-8.8h4.47v21.71Z"/><path class="cls-14" d="M702.27,480.84h-7.84l-1.49,4.47h-4.76l8.08-21.71h4.14l8.12,21.71h-4.76l-1.51-4.47Zm-6.63-3.62h5.43l-2.73-8.12-2.7,8.12Z"/><path class="cls-14" d="M729.74,485.32h-4.47l-8.71-14.28v14.28h-4.47v-21.71h4.47l8.72,14.31v-14.31h4.46v21.71Z"/><path class="cls-14" d="M741.97,476.61l-2.33,2.5v6.2h-4.47v-21.71h4.47v9.84l1.97-2.7,5.53-7.14h5.5l-7.71,9.65,7.93,12.06h-5.32l-5.58-8.71Z"/><path class="cls-14" d="M772.69,473.39l4.52-9.78h4.89l-7.13,13.83v7.87h-4.55v-7.87l-7.13-13.83h4.9l4.49,9.78Z"/><path class="cls-14" d="M803.01,474.95c0,2.14-.38,4.01-1.13,5.62-.76,1.61-1.84,2.85-3.24,3.73-1.41,.88-3.02,1.31-4.84,1.31s-3.4-.43-4.82-1.3c-1.41-.86-2.5-2.1-3.28-3.71-.78-1.6-1.17-3.45-1.18-5.54v-1.07c0-2.14,.38-4.02,1.16-5.64s1.86-2.87,3.26-3.74c1.41-.87,3.01-1.3,4.82-1.3s3.42,.43,4.82,1.3c1.41,.87,2.49,2.12,3.26,3.74s1.16,3.5,1.16,5.63v.97Zm-4.53-.98c0-2.28-.41-4-1.22-5.19-.81-1.18-1.98-1.77-3.49-1.77s-2.66,.58-3.47,1.75c-.82,1.17-1.23,2.88-1.24,5.14v1.06c0,2.22,.41,3.94,1.22,5.16,.81,1.22,1.99,1.83,3.52,1.83s2.65-.59,3.46-1.77c.81-1.18,1.21-2.89,1.22-5.15v-1.06Z"/><path class="cls-14" d="M824.21,463.61v14.3c0,2.38-.74,4.25-2.23,5.63-1.49,1.38-3.52,2.07-6.09,2.07s-4.55-.67-6.04-2.01c-1.49-1.34-2.25-3.18-2.28-5.53v-14.46h4.47v14.33c0,1.42,.34,2.46,1.02,3.11,.68,.65,1.62,.98,2.83,.98,2.51,0,3.79-1.32,3.83-3.97v-14.45h4.49Z"/></g><g><rect class="cls-17" x="625.21" y="538.01" width="102.56" height="6.43"/><rect class="cls-17" x="625.21" y="561.44" width="102.56" height="6.43"/><rect class="cls-17" x="625.21" y="584.87" width="102.56" height="6.43"/><rect class="cls-17" x="625.21" y="608.3" width="102.56" height="6.43"/></g><g><rect class="cls-17" x="751.31" y="538.01" width="102.56" height="6.43"/><rect class="cls-17" x="751.31" y="561.44" width="102.56" height="6.43"/><rect class="cls-17" x="751.31" y="584.87" width="102.56" height="6.43"/><rect class="cls-17" x="751.31" y="608.3" width="102.56" height="6.43"/></g><rect class="cls-15" x="627.38" y="674.3" width="103.04" height="38.27" rx="19.13" ry="19.13"/><rect class="cls-18" x="748.66" y="674.3" width="103.04" height="38.27" rx="19.13" ry="19.13"/><line class="cls-3" x1="615.12" y1="274.01" x2="1283.41" y2="274.01"/><line class="cls-6" x1="615.12" y1="202.35" x2="1283.41" y2="202.35"/><line class="cls-4" x1="615.12" y1="130.69" x2="1283.41" y2="130.69"/><line class="cls-2" x1="615.12" y1="59.03" x2="1283.41" y2="59.03"/><g><rect class="cls-15" x="841.3" y="90.32" width="12.07" height="183.69"/><rect class="cls-15" x="891.19" y="142.67" width="12.07" height="131.34"/><rect class="cls-18" x="941.08" y="184.43" width="12.07" height="89.57"/><rect class="cls-15" x="990.97" y="214.86" width="12.07" height="59.15"/><rect class="cls-15" x="1040.86" y="244.43" width="12.07" height="29.57"/></g><g><path class="cls-14" d="M447.73,706.86v25.7c0,8.98-27.92,16.25-62.36,16.25s-62.36-7.27-62.36-16.25v-25.7h124.72Z"/><ellipse class="cls-17" cx="385.37" cy="706.86" rx="62.36" ry="16.25"/></g><g><path class="cls-14" d="M447.73,675.11v25.7c0,8.98-27.92,16.25-62.36,16.25s-62.36-7.27-62.36-16.25v-25.7h124.72Z"/><ellipse class="cls-17" cx="385.37" cy="675.11" rx="62.36" ry="16.25"/></g><g><path class="cls-14" d="M447.73,643.36v25.7c0,8.98-27.92,16.25-62.36,16.25s-62.36-7.27-62.36-16.25v-25.7h124.72Z"/><ellipse class="cls-17" cx="385.37" cy="643.36" rx="62.36" ry="16.25"/></g><g><path class="cls-14" d="M447.73,611.61v25.7c0,8.98-27.92,16.25-62.36,16.25s-62.36-7.27-62.36-16.25v-25.7h124.72Z"/><ellipse class="cls-17" cx="385.37" cy="611.61" rx="62.36" ry="16.25"/></g><g><path class="cls-14" d="M447.73,579.86v25.7c0,8.98-27.92,16.25-62.36,16.25s-62.36-7.27-62.36-16.25v-25.7h124.72Z"/><ellipse class="cls-17" cx="385.37" cy="579.86" rx="62.36" ry="16.25"/></g><g><path class="cls-14" d="M313.88,698v20.07c0,7.01-21.81,12.69-48.7,12.69s-48.7-5.68-48.7-12.69v-20.07h97.41Z"/><ellipse class="cls-17" cx="265.18" cy="698" rx="48.71" ry="12.69"/></g><g><path class="cls-14" d="M313.88,669.28v20.07c0,7.01-21.81,12.69-48.7,12.69s-48.7-5.68-48.7-12.69v-20.07h97.41Z"/><ellipse class="cls-17" cx="265.18" cy="669.28" rx="48.71" ry="12.69"/></g><g><path class="cls-14" d="M250.01,727.08v20.07c0,7.01-21.81,12.69-48.7,12.69s-48.7-5.68-48.7-12.69v-20.07h97.41Z"/><ellipse class="cls-17" cx="201.3" cy="727.08" rx="48.71" ry="12.69"/></g><g><path class="cls-14" d="M176.59,699.13l5.93,19.18c2.07,6.7-17.08,18.57-42.78,26.51-25.7,7.95-48.21,8.96-50.28,2.26l-5.93-19.18,93.06-28.77Z"/><ellipse class="cls-17" cx="130.07" cy="713.52" rx="48.71" ry="12.69" transform="translate(-204.97 70.26) rotate(-17.18)"/></g><polygon class="cls-5" points="800.36 695.55 798.3 739.09 810.23 730.92 816.84 747.1 820.78 745.49 824.72 743.88 818.1 727.7 832.34 725.17 800.36 695.55"/></svg>