<svg id="Calque_1" data-name="Calque 1" xmlns="http://www.w3.org/2000/svg" viewBox="0 0 120 33.75"><defs><style>.cls-1{fill:#3ebfac;}.cls-2{fill:#e17c00;}.cls-3{fill:#c3d500;}.cls-4{fill:#002453;}</style></defs><path class="cls-1" d="M43.23,26l6,7.64h3.1L44.9,24.17Z"/><path class="cls-2" d="M39.69,30.09V.14H37.25V33.62h2.44Z"/><path class="cls-3" d="M49.05,14.71,40.6,23.82v3.63l2-2.21h0l1.67-1.82.69-.74,1.88-2.05h0l5.49-5.92Z"/><path class="cls-4" d="M24,33.75a9.68,9.68,0,1,1,9.86-9.68A9.78,9.78,0,0,1,24,33.75Zm0-16.91a7.23,7.23,0,1,0,7.36,7.23A7.3,7.3,0,0,0,24,16.84Z"/><path class="cls-4" d="M2.49,7H.05V30.2H2.49Z"/><path class="cls-4" d="M2.49,31.1H.05v1.25a1.23,1.23,0,0,0,.37.87,1.15,1.15,0,0,0,.85.37H13.44V31.1Z"/><path class="cls-4" d="M94.43,11.61H92V14h2.44Z"/><path class="cls-4" d="M92,33.62V16.27h2.44V33.62Z"/><path class="cls-4" d="M81.58,11.61V24.05a7.34,7.34,0,0,0,1.81,5.36,7,7,0,0,0,5.26,1.85v2.49a9.41,9.41,0,0,1-7-2.56,9.75,9.75,0,0,1-2.52-7.14V11.61Z"/><path class="cls-4" d="M73.42,29.13V14.7H71v2.9a9.89,9.89,0,0,0-7.35-3.26,9.69,9.69,0,1,0,0,19.37A9.84,9.84,0,0,0,70,31.35v-3.8A7.37,7.37,0,0,1,56.25,24a7.35,7.35,0,0,1,14.7-.2V29.5c0,4.39,3.93,4.28,5,4.21h0v-2.4c-1.39,0-2.52-.69-2.52-2.18Z"/><path class="cls-4" d="M117.3,29.13V14.7h-2.47v2.9a9.92,9.92,0,0,0-7.35-3.26,9.69,9.69,0,1,0,0,19.37,9.88,9.88,0,0,0,6.42-2.36v-3.8A7.38,7.38,0,0,1,100.12,24a7.36,7.36,0,0,1,14.71-.2V29.5c0,4.39,3.93,4.28,5,4.21h0v-2.4c-1.39,0-2.52-.69-2.52-2.18Z"/><path class="cls-4" d="M54,.11h4.66v1H55.11v1.6h3.15v1H55.11V5.31h3.6v1H54Z"/><path class="cls-4" d="M63.19,5.38l.66-.78a3,3,0,0,0,2,.81c.68,0,1.11-.31,1.11-.78v0c0-.44-.25-.67-1.42-.94C64.2,3.36,63.44,3,63.44,1.83v0A1.91,1.91,0,0,1,65.59,0a3.55,3.55,0,0,1,2.28.77l-.6.82A2.89,2.89,0,0,0,65.57,1c-.65,0-1,.32-1,.73v0c0,.47.29.68,1.49,1s2,.78,2,1.8v0c0,1.16-.93,1.84-2.25,1.84a3.88,3.88,0,0,1-2.62-1Z"/><path class="cls-4" d="M72.94.11h2.48a2.1,2.1,0,0,1,2.39,2.06v0c0,1.38-1.13,2.11-2.51,2.11H74.05v2H73V.11Zm2.39,3.21c.84,0,1.36-.46,1.36-1.11v0c0-.72-.53-1.1-1.36-1.1H74.05V3.32Z"/><path class="cls-4" d="M84.76.06h1l2.76,6.22H87.37l-.63-1.49h-3l-.64,1.49H82Zm1.58,3.77L85.25,1.36,84.17,3.83Z"/><path class="cls-4" d="M92.93,3.21v0A3.15,3.15,0,0,1,96.17,0a3.28,3.28,0,0,1,2.46,1l-.71.8A2.51,2.51,0,0,0,96.16,1a2.09,2.09,0,0,0-2.07,2.18v0a2.1,2.1,0,0,0,2.07,2.19A2.46,2.46,0,0,0,98,4.58l.71.71a3.28,3.28,0,0,1-2.55,1.09,3.13,3.13,0,0,1-3.2-3.17Z"/><path class="cls-4" d="M103.42.11h4.66v1h-3.55v1.6h3.15v1h-3.15V5.31h3.59v1h-4.7Z"/><path class="cls-4" d="M112.61,5.38l.66-.78a2.93,2.93,0,0,0,2,.81c.69,0,1.11-.31,1.11-.78v0c0-.44-.25-.67-1.41-.94-1.34-.31-2.09-.71-2.09-1.84v0A1.91,1.91,0,0,1,115,0a3.53,3.53,0,0,1,2.28.77l-.59.82A2.92,2.92,0,0,0,115,1c-.64,0-1,.32-1,.73v0c0,.47.29.68,1.49,1s2,.78,2,1.8v0c0,1.16-.92,1.84-2.24,1.84a3.86,3.86,0,0,1-2.62-1Z"/></svg>