<svg xmlns="http://www.w3.org/2000/svg" xmlns:xlink="http://www.w3.org/1999/xlink" width="805.67" height="146.64" viewBox="0 0 805.67 146.64"><defs><linearGradient id="a" x1="-148.16" y1="305" x2="-147.16" y2="305" gradientTransform="matrix(117.28, 0, 0, -117.28, 17376.83, 35845.15)" gradientUnits="userSpaceOnUse"><stop offset="0" stop-color="#fff"/><stop offset="1" stop-color="#ccc"/></linearGradient><clipPath id="b" transform="translate(0 -0.14)"><rect x="-148.16" y="-158.08" width="1080" height="463.08" fill="none"/></clipPath><clipPath id="d" transform="translate(0 -0.14)"><path d="M74.66,42.78,44,73.46l30.68,30.68,6,6,36.66-36.67L80.64,36.8Zm21-21-4,4,47.65,47.64L91.63,121.11l4,4,21.67,21.67,73.29-73.32L117.3.14Z" fill="none"/></clipPath><linearGradient id="e" x1="-148.16" y1="305" x2="-147.16" y2="305" gradientTransform="matrix(146.61, 0, 0, -146.61, 21765.54, 44789.01)" gradientUnits="userSpaceOnUse"><stop offset="0" stop-color="#0507b6"/><stop offset="0.2" stop-color="#050bb8"/><stop offset="0.4" stop-color="#0718bf"/><stop offset="0.61" stop-color="#092cca"/><stop offset="0.82" stop-color="#0c49d9"/><stop offset="1" stop-color="#0f68ea"/></linearGradient><clipPath id="f" transform="translate(0 -0.14)"><polygon points="41.32 32.15 24.54 48.92 0 73.46 24.54 98 41.32 114.78 58.65 132.12 117.28 73.46 58.65 14.81 41.32 32.15" fill="none"/></clipPath><mask id="g" x="0" y="14.67" width="117.28" height="117.31" maskUnits="userSpaceOnUse"><g transform="translate(0 -0.14)"><rect y="14.81" width="117.28" height="117.31" fill="url(#a)"/></g></mask><linearGradient id="h" x1="-148.16" y1="305" x2="-147.16" y2="305" gradientTransform="matrix(117.28, 0, 0, -117.28, 17376.83, 35845)" gradientUnits="userSpaceOnUse"><stop offset="0" stop-color="#0836ff"/><stop offset="1" stop-color="#3aa2eb"/></linearGradient></defs><title>PlanpointGradientDark</title><g clip-path="url(#b)"><g clip-path="url(#b)"><path d="M307.08,54.18A32.43,32.43,0,0,1,274.65,86.6H259.79v29.72H238.24V21.75H274a32.48,32.48,0,0,1,33,31.86Zm-21.62,0A11.54,11.54,0,0,0,274.57,42H259.79V66.36H274a11.7,11.7,0,0,0,11.55-11.82v-.36Z" transform="translate(0 -0.14)" fill="#0f68ea"/><rect x="313.83" y="17.55" width="20.27" height="98.63" fill="#0f68ea"/><path d="M414.94,48.77v67.55H394.67V110a25.27,25.27,0,0,1-20,8.33c-17.79,0-32.2-15.54-32.2-35.58s14.64-35.57,32.2-35.57c9,0,15.76,3.15,20,8.33V49.22h20.27ZM394.67,82.55c0-10.13-6.76-16.44-16-16.44s-16,6.31-16,16.44S369.45,99,378.68,99s16-6.31,16-16.44" transform="translate(0 -0.14)" fill="#0f68ea"/><path d="M491.27,75v41.43H471V77.82c0-8.33-5.18-12.38-11.71-12.38-7.43,0-12.61,4.27-12.61,14v36.92H426.42V48.77h20.26v6.31c3.61-5,10.36-8.33,19.37-8.33,13.51,0,25.22,9.9,25.22,28.26" transform="translate(0 -0.14)" fill="#0f68ea"/><path d="M574.36,82.55c0,20-14.64,35.58-32.2,35.58-9,0-15.77-3.16-20-8.34v33.33H501.85V48.55h20.27v6.3a25.25,25.25,0,0,1,20-8.33c17.56.23,32.2,15.76,32.2,36m-20.27,0c0-10.13-6.76-16.44-16-16.44s-16,6.31-16,16.44S528.87,99,538.1,99s16-6.31,16-16.44" transform="translate(0 -0.14)" fill="#0f68ea"/><path d="M579.08,82.55a35.81,35.81,0,1,1,36,35.58h-.22a35.44,35.44,0,0,1-35.81-35h0Zm51.34,0a15.54,15.54,0,1,0-15.53,15.54,15.53,15.53,0,0,0,15.53-15.54" transform="translate(0 -0.14)" fill="#0f68ea"/><path d="M656.77,30.53a12.16,12.16,0,1,1,12.16,12.16,12.16,12.16,0,0,1-12.16-12.16m2,18.24h20.26v67.55H658.8Z" transform="translate(0 -0.14)" fill="#0f68ea"/><path d="M755.39,75v41.43H735.13V77.82c0-8.33-5.18-12.38-11.71-12.38-7.43,0-12.61,4.27-12.61,14v36.92H690.54V48.77h20.27v6.31c3.6-5,10.36-8.33,19.36-8.33,13.74,0,25.22,9.9,25.22,28.26" transform="translate(0 -0.14)" fill="#0f68ea"/><path d="M791.65,68.25V92.12c0,5.85,5,6.3,14,5.85v18.47c-26.57,2.7-34.23-5.18-34.23-24.1V68.25H760.64V48.88h10.81V36.05L791.71,30V48.88h14V68.25Z" transform="translate(0 -0.14)" fill="#0f68ea"/></g><g clip-path="url(#d)"><rect x="43.98" width="146.61" height="146.64" fill="url(#e)"/></g><g clip-path="url(#f)"><g mask="url(#g)"><rect y="14.67" width="117.28" height="117.31" fill="url(#h)"/></g></g></g></svg>