<svg id="Group_1" data-name="Group 1" xmlns="http://www.w3.org/2000/svg" width="224" height="65.005" viewBox="0 0 224 65.005">
  <path id="Path_2" data-name="Path 2" d="M76.158,46.737c.2-4.108.422-9,.5-13.18h.123c.748,4.053,1.768,8.528,2.816,12.256l3.577,13.194h4.706l3.945-13.4c1.1-3.7,2.272-8.107,3.21-12.052h.122c0,3.346.163,8.705.34,13.031l.585,12.881h5.93l-1.836-33.08H92.494L88.849,38.834c-1.088,3.945-2.081,7.971-2.829,11.725H85.9c-.721-3.781-1.673-7.672-2.693-11.725l-3.5-12.46h-7.7l-2.176,33.08h5.686Z"/>
  <path id="Path_3" data-name="Path 3" d="M125.589,54.137H113.714V44.928h10.569v-5.21H113.714V31.8h11.181V26.375H107.484V59.468h18.1Z"/>
  <path id="Path_4" data-name="Path 4" d="M163.824,50.736l2.313,8.746h6.529L163.62,26.388h-7.835L148.154,54.1H136.606V26.375H130.39V59.468h22.539l2.244-8.746h8.651Zm-5.849-12.378c.449-1.945,1.007-4.652,1.428-6.692h.123c.435,2.013.993,4.693,1.5,6.692l1.932,7.536h-6.9Z"/>
  <path id="Path_5" data-name="Path 5" d="M178.283,59.482h6.23v-27.6h15.316V59.468h6.216V31.883h8V26.375h-43.7v5.509h7.93v27.6Z"/>
  <path id="Path_6" data-name="Path 6" d="M224,26.375h-6.23V59.468H224Z"/>
  <path id="Path_7" data-name="Path 7" d="M43.663,0V13.793H0v9.3H11.711l2.34,9.834c1.007,4.067,2.081,8.964,2.816,13.384h.163c1.007-4.448,2.176-9.617,3.251-13.384l2.707-9.794H35.57l1.809,36.631h-9.3l-.435-13.1c-.15-4.189-.2-9.073-.2-14.772h-.163c-1.115,4.842-2.612,10.324-3.781,14.337l-3.55,12.772H12.446L9.467,46.288c-.952-4.013-2.013-9.44-2.775-14.459h-.2c-.2,5.169-.367,10.6-.517,14.8L5.386,59.713H0V65H51.212V21.342H65V0Z" fill="#e41e26"/>
</svg>
