<?xml version="1.0" encoding="UTF-8"?> <svg xmlns="http://www.w3.org/2000/svg" width="137.168" height="83.071" viewBox="0 0 137.168 83.071"><g id="Groupe_5" data-name="Groupe 5" transform="translate(-56.579 -56.579)"><g id="Groupe_1" data-name="Groupe 1" transform="translate(56.579 128.364)"><path id="Tracé_1" data-name="Tracé 1" d="M56.579,183.383V172.56h1.527v10.823Z" transform="translate(-56.579 -172.325)" fill="#304958"></path><path id="Tracé_2" data-name="Tracé 2" d="M83.5,183.383v-8.426l-3.693,8.426H78.437l-3.663-8.426v8.426H73.293V172.56h2.031l3.816,8.808,3.847-8.808h2v10.823Z" transform="translate(-62.914 -172.325)" fill="#304958"></path><path id="Tracé_3" data-name="Tracé 3" d="M116.588,183.383v-8.426l-3.693,8.426H111.52l-3.663-8.426v8.426h-1.481V172.56h2.031l3.816,8.808,3.847-8.808h2v10.823Z" transform="translate(-75.454 -172.325)" fill="#304958"></path><path id="Tracé_4" data-name="Tracé 4" d="M142.275,172.192a5.644,5.644,0,1,1-5.434,5.633A5.393,5.393,0,0,1,142.275,172.192Zm0,9.907a4.283,4.283,0,1,0-3.908-4.274A3.912,3.912,0,0,0,142.275,182.1Z" transform="translate(-87.002 -172.186)" fill="#304958"></path><path id="Tracé_5" data-name="Tracé 5" d="M171.016,172.56c2.06,0,3.267,1.221,3.267,2.931a2.4,2.4,0,0,1-1.618,2.335,2.6,2.6,0,0,1,1.954,2.611,3.031,3.031,0,0,1-3.343,2.946H167.49V172.56Zm-.168,4.732a1.718,1.718,0,0,0,1.924-1.725c0-1.023-.748-1.694-1.984-1.694h-1.8v3.419Zm.214,4.778c1.205,0,2.031-.671,2.031-1.724a1.721,1.721,0,0,0-1.97-1.771h-2.137v3.5Z" transform="translate(-98.619 -172.325)" fill="#304958"></path><path id="Tracé_6" data-name="Tracé 6" d="M193.269,183.383V172.56H194.8v10.823Z" transform="translate(-108.39 -172.325)" fill="#304958"></path><path id="Tracé_7" data-name="Tracé 7" d="M210.343,183.383V172.56h1.5v9.418h5.114v1.4Z" transform="translate(-114.862 -172.325)" fill="#304958"></path><path id="Tracé_8" data-name="Tracé 8" d="M233.644,183.383V172.56h1.527v10.823Z" transform="translate(-123.694 -172.325)" fill="#304958"></path><path id="Tracé_9" data-name="Tracé 9" d="M255.931,180.361h-4.793l-1.145,3.022h-1.6l4.3-10.823h1.726l4.3,10.823h-1.618Zm-4.259-1.389H255.4l-1.878-4.854Z" transform="translate(-129.284 -172.325)" fill="#304958"></path><path id="Tracé_10" data-name="Tracé 10" d="M271.312,172.182a2.8,2.8,0,1,1-2.759,2.8A2.792,2.792,0,0,1,271.312,172.182Zm0,5.048a2.249,2.249,0,1,0-2.168-2.252A2.182,2.182,0,0,0,271.312,177.23Zm-.349-.75h-.576v-3.048h1.054a.975.975,0,0,1,1.031.956.943.943,0,0,1-.667.9l.682,1.19h-.659l-.636-1.138h-.228Zm.394-1.637c.341,0,.531-.168.531-.448,0-.3-.19-.462-.531-.462h-.394v.91Z" transform="translate(-136.926 -172.182)" fill="#304958"></path></g><g id="Groupe_2" data-name="Groupe 2" transform="translate(56.579 56.579)"><path id="Tracé_11" data-name="Tracé 11" d="M199.164,94.785c7.733-3.034,12.944-9.966,12.944-18.277,0-11.21-9.465-19.928-21.837-19.928H167.479v33.3c0,7.8-3.9,11.459-10.214,11.459-6.144,0-9.714-3.654-9.714-11.459v-33.3H134.266V91.868c0,13.783,9.05,22.835,22.835,22.835s23.249-9.051,23.249-22.835V68.37h9.507c5.812,0,9.382,3.654,9.382,8.138s-3.571,8.137-9.382,8.137h-4.236l-.008,11.78,13.762,17.447h16.109Z" transform="translate(-86.026 -56.579)" fill="#304958"></path><path id="Tracé_12" data-name="Tracé 12" d="M79.414,56.579H56.579v57.293h12.87V96.435h9.965c12.371,0,21.837-8.719,21.837-19.928S91.785,56.579,79.414,56.579ZM79,84.644h-9.55V68.37H79c5.811,0,9.382,3.654,9.382,8.138S84.81,84.644,79,84.644Z" transform="translate(-56.579 -56.579)" fill="#304958"></path></g></g></svg> 