<?xml version="1.0" encoding="UTF-8"?> <svg xmlns="http://www.w3.org/2000/svg" id="a" viewBox="0 0 150 72.4927"><defs><style>.b{fill:#303030;}</style></defs><polygon class="b" points="103.05323 0 103.05323 5.85687 144.14239 5.85687 144.14239 66.63585 5.85684 66.63585 5.85684 5.85687 94.14722 5.85687 94.14722 0 0 0 0 72.4927 150 72.4927 150 0 103.05323 0"></polygon><path class="b" d="M30.60244,34.78087c1.39989,0,2.5267-.27308,2.5267-3.20941,0-2.86733-1.12681-3.17491-2.5267-3.17491h-1.57021v6.38433h1.57021Zm-1.57021,14.78224h-6.14504V22.93422h8.56897c4.09691,0,7.88626,1.02406,7.88626,8.63724,0,4.71135-1.46819,6.79395-3.10664,7.95453l3.72106,10.03711h-6.99876l-2.52596-9.28616h-1.39989v9.28616Z"></path><path class="b" d="M54.67042,27.85051c-2.11638,0-2.56052,1.94606-2.56052,8.39793,0,6.4526,.44414,8.39866,2.56052,8.39866,2.08256,0,2.56048-1.94606,2.56048-8.39866,0-6.45187-.47792-8.39793-2.56048-8.39793m0-5.32579c7.20355,0,8.73999,4.37002,8.73999,13.72372,0,9.35443-1.53643,13.72442-8.73999,13.72442-7.23737,0-8.74003-4.36999-8.74003-13.72442,0-9.3537,1.50266-13.72372,8.74003-13.72372"></path><path class="b" d="M79.54444,44.1008c1.3309,0,2.18462-.4779,2.18462-2.59427,0-2.21912-.92127-2.83356-2.04808-2.83356h-2.59429v5.42783h2.45775Zm-2.45775-15.70426v4.84789h2.0819c.99027,0,1.70675-.51167,1.70675-2.49223,0-1.94604-.68271-2.35566-1.70675-2.35566h-2.0819Zm-6.1457,21.16656V22.93422h9.69574c3.37973,0,6.4526,1.16131,6.4526,7.27185,0,3.10664-.8882,4.60858-2.32187,5.32577,2.11638,.4779,3.17489,2.62877,3.17489,6.14502,0,6.0085-2.62873,7.88626-7.10079,7.88626h-9.90057Z"></path><polygon class="b" points="119.24086 30.64992 121.39171 37.13629 121.35719 32.01534 121.35719 22.9347 127.05883 22.9347 127.05883 49.56289 120.43592 49.56289 117.80715 41.84764 115.69007 35.36129 115.72459 40.48225 115.79284 49.56289 110.02295 49.56289 110.02295 22.9347 116.64587 22.9347 119.24086 30.64992"></polygon><path class="b" d="M95.27254,47.6654c0-1.67295,.62806-2.03731,2.16449-2.05383l.18255,1.46599c-.85952,.01654-1.05786,.19834-1.05786,.62953,0,.5706,.6274,.69563,2.03229,.69563s2.03304,.01654,2.03304-.77037c0-.29824-.0582-.43908-.13224-.58784h-1.14839v.64534h-1.20655v-2.07039h3.21441c.38015,.53035,.56126,1.07722,.56126,2.05385,0,1.77287-.97448,2.22849-3.32152,2.22849-2.3384,0-3.32148-.49731-3.32148-2.2364"></path><path class="b" d="M98.23865,42.98423c0-.33918-.06614-.61299-.77613-.61299-.6942,0-.76894,.27381-.76894,.61299v.38087h1.54508v-.38087Zm3.57807,.38087v1.49045h-6.44545v-2.07828c0-.99386,.24795-1.91299,2.09124-1.91299,1.14045,0,1.6442,.35572,1.92523,.75313l2.42898-.90261v1.69813l-2.24717,.61227v.33991h2.24717Z"></path><path class="b" d="M96.56172,38.18946c0,.51384,.47072,.62091,2.03229,.62091,1.56231,0,2.03304-.10707,2.03304-.62091,0-.50518-.47072-.62089-2.03304-.62089-1.56157,0-2.03229,.11571-2.03229,.62089m-1.28919,0c0-1.74699,1.05781-2.11995,3.32148-2.11995,2.26441,0,3.32152,.37296,3.32152,2.11995,0,1.75563-1.05711,2.11997-3.32152,2.11997-2.26366,0-3.32148-.36434-3.32148-2.11997"></path><path class="b" d="M100.04018,33.03859h-4.66825v-1.48253h4.74225c1.2569,0,1.83465,.36434,1.83465,1.92952,0,1.55727-.57775,1.93025-1.83465,1.93025h-4.74225v-1.49117h4.66825c.43835,0,.59499-.07472,.59499-.43908,0-.37226-.15663-.447-.59499-.447"></path><path class="b" d="M98.40392,28.82635c0-.33129-.23141-.45561-.85877-.45561-.62016,0-.85158,.12433-.85158,.45561v.46351h1.71035v-.46351Zm3.4128,.46351v1.49117h-6.44545v-2.03804c0-.99314,.41322-1.87921,2.17388-1.87921,1.77645,0,2.18967,.8523,2.18967,1.84616v.57992h2.0819Z"></path><polygon class="b" points="95.37167 22.92996 96.69392 22.92996 96.69392 24.80992 97.86745 24.80992 97.86745 23.2864 99.18111 23.2864 99.18111 24.80992 100.49477 24.80992 100.49477 22.83871 101.81707 22.83871 101.81707 26.29245 95.37167 26.29245 95.37167 22.92996"></polygon></svg> 