<?xml version="1.0" encoding="utf-8"?>
<!-- Generator: Adobe Illustrator 16.0.0, SVG Export Plug-In . SVG Version: 6.00 Build 0)  -->
<!DOCTYPE svg PUBLIC "-//W3C//DTD SVG 1.1//EN" "http://www.w3.org/Graphics/SVG/1.1/DTD/svg11.dtd">
<svg version="1.1" id="Layer_1" xmlns="http://www.w3.org/2000/svg" xmlns:xlink="http://www.w3.org/1999/xlink" x="0px" y="0px"
	 width="303.3px" height="105.3px" viewBox="0 0 303.3 105.3" style="enable-background:new 0 0 303.3 105.3;" xml:space="preserve"
	>
<style type="text/css">
<![CDATA[
	.st0{fill:#8B1200;}
	.st1{fill:#232323;}
]]>
</style>
<path class="st1" d="M18.2,11.7v9c-1.1,0.6-2.2,1-3.2,1.3c-1,0.3-2.1,0.4-3.3,0.4c-1.9,0-3.6-0.4-4.9-1.3c-1.3-0.8-2.3-2-3-3.5
	c-0.7-1.5-1-3.3-1-5.3c0-2.2,0.4-4.1,1.3-5.6c0.9-1.5,2-2.6,3.3-3.3c1.4-0.7,2.8-1.1,4.4-1.1c2.3,0,4.2,0.6,5.9,1.7L17,5.3
	c-1.5-1-3.2-1.5-5.1-1.5c-1.6,0-2.9,0.4-4,1.1C6.8,5.6,6,6.6,5.4,7.9s-0.9,2.8-0.9,4.4c0,1.7,0.2,3.2,0.8,4.5
	c0.5,1.3,1.3,2.3,2.4,3.1c1.1,0.7,2.4,1.1,4.1,1.1c0.9,0,1.8-0.1,2.5-0.3s1.5-0.5,2.3-0.8v-6.8h-5.3l0.2-1.4H18.2z"/>
<path class="st1" d="M28.8,9c0.3,0,0.5,0.1,0.9,0.2l-0.4,1.6c-0.6-0.2-1.1-0.3-1.5-0.3c-0.7,0-1.4,0.2-2,0.6c-0.6,0.4-1.1,1.1-1.6,2
	v9h-1.6V9.2l1.6-0.2v2.1c0.5-0.8,1.1-1.3,1.7-1.7s1.3-0.6,2.1-0.6C28.2,8.9,28.5,9,28.8,9z"/>
<path class="st1" d="M33.6,21.6c-0.9-0.6-1.6-1.4-2-2.4c-0.5-1-0.7-2.2-0.7-3.5c0-1.5,0.3-2.8,0.9-3.8c0.6-1,1.4-1.7,2.3-2.2
	s2-0.7,3.2-0.7c1.3,0,2.4,0.3,3.3,0.9s1.6,1.4,2,2.4c0.5,1,0.7,2.2,0.7,3.5c0,1.6-0.3,2.8-0.8,3.9s-1.3,1.8-2.3,2.2
	s-2.1,0.7-3.3,0.7C35.6,22.5,34.5,22.2,33.6,21.6z M40.6,19.7c0.8-1,1.2-2.3,1.2-4c0-1.6-0.4-2.9-1.1-3.9c-0.8-1-1.9-1.5-3.5-1.5
	c-1.6,0-2.8,0.5-3.6,1.5c-0.8,1-1.2,2.3-1.2,3.9c0,1.7,0.4,3,1.1,4c0.8,1,1.9,1.5,3.5,1.5S39.9,20.6,40.6,19.7z"/>
<path class="st1" d="M57.4,9.1v13.1h-1.5l-0.1-1.2c-0.7,0.4-1.5,0.8-2.3,1.1c-0.8,0.3-1.7,0.4-2.5,0.4c-1.2,0-2.2-0.3-3-0.9
	c-0.8-0.6-1.2-1.7-1.2-3.2V9.2l1.6-0.2v8.8c0,0.8,0.1,1.4,0.3,1.8s0.5,0.8,1,1c0.4,0.2,1.1,0.3,1.8,0.3c0.7,0,1.4-0.1,2.2-0.4
	c0.7-0.3,1.5-0.6,2.2-1V9.2L57.4,9.1z"/>
<path class="st1" d="M72.2,10.7c0.9,1.2,1.3,2.7,1.3,4.6c0,1.6-0.3,2.9-0.9,4s-1.4,1.9-2.5,2.4c-1,0.5-2.2,0.8-3.4,0.8
	c-1,0-2-0.2-3-0.5v5.8h-1.6V9.2l1.6-0.2v1.2c0.7-0.4,1.5-0.8,2.3-1c0.8-0.2,1.5-0.4,2.2-0.4C70,8.9,71.3,9.5,72.2,10.7z M69.5,20.5
	c0.8-0.4,1.4-1.1,1.8-2c0.4-0.9,0.6-1.9,0.6-3.2c0-1.6-0.3-2.9-1-3.8c-0.6-0.9-1.6-1.3-3-1.3c-1.4,0-2.9,0.4-4.3,1.3v9.1
	c0.9,0.3,1.9,0.5,3,0.5C67.7,21.2,68.7,20.9,69.5,20.5z"/>
<path class="st1" d="M87,15.8h-9.5c0,1.8,0.4,3.2,1.2,4c0.8,0.9,1.8,1.3,3.1,1.3c0.6,0,1.2-0.1,1.7-0.2c0.5-0.1,0.9-0.3,1.3-0.5
	c0.4-0.2,0.8-0.4,1.3-0.8l0.6,1.1c-0.7,0.5-1.5,0.9-2.3,1.2c-0.8,0.3-1.7,0.4-2.7,0.4c-1.8,0-3.2-0.5-4.2-1.7
	c-1.1-1.1-1.6-2.8-1.6-5.1c0-1.1,0.2-2.2,0.7-3.3c0.4-1,1.1-1.9,2-2.5s2-1,3.4-1c1.1,0,2.1,0.2,2.9,0.7c0.8,0.5,1.3,1.1,1.7,1.9
	c0.4,0.8,0.6,1.7,0.6,2.8C87.1,15,87.1,15.4,87,15.8z M79.7,10.8c-0.6,0.4-1.1,1-1.4,1.6c-0.3,0.7-0.6,1.4-0.7,2.2h8v-0.2
	c0-1.3-0.3-2.3-0.9-3.1c-0.6-0.7-1.5-1.1-2.7-1.1C81.1,10.2,80.3,10.4,79.7,10.8z"/>
<path class="st0" d="M41.9,36.3h9.3v0.6l-19,51.3H21.5l-19-51.3v-0.6h9.6L27,79.1L41.9,36.3z"/>
<path class="st0" d="M56.9,45.5c-0.9-0.5-1.6-1.2-2.1-2.1c-0.5-0.9-0.8-1.8-0.8-2.8c0-1,0.3-2,0.8-2.8c0.5-0.9,1.2-1.6,2.1-2.1
	c0.9-0.5,1.8-0.8,2.8-0.8c1.1,0,2.1,0.3,3,0.8c0.9,0.5,1.6,1.2,2.2,2.1c0.5,0.9,0.8,1.8,0.8,2.8c0,1-0.3,2-0.8,2.8
	c-0.5,0.9-1.3,1.6-2.2,2.1c-0.9,0.5-1.9,0.8-3,0.8C58.8,46.3,57.8,46.1,56.9,45.5z M55.6,88.1V52.8l8.6-0.9v36.2H55.6z"/>
<path class="st0" d="M76,88c-2.6-0.8-5-2-7.2-3.6l3.7-5.8c3.8,2.7,7.8,4.1,12.1,4.1c2.1,0,3.7-0.3,4.8-1c1.1-0.7,1.6-1.7,1.6-3
	c0-0.7-0.2-1.4-0.6-2c-0.4-0.6-1.1-1.1-2.2-1.6c-1.1-0.5-2.6-1.1-4.6-1.6l-2.4-0.6c-3.8-1-6.6-2.3-8.3-4c-1.7-1.7-2.6-3.8-2.6-6.6
	c0-2.1,0.6-3.9,1.8-5.5c1.2-1.6,2.8-2.9,4.9-3.8c2.1-0.9,4.5-1.4,7.2-1.4c5.1,0,9.8,1.3,14.2,3.8L95,61.2c-2.3-1.2-4.2-2-5.7-2.4
	c-1.6-0.4-3.2-0.6-5-0.6c-1.7,0-3,0.3-3.9,1c-0.9,0.6-1.4,1.5-1.4,2.6c0,0.6,0.2,1.2,0.5,1.6c0.3,0.5,0.9,0.9,1.7,1.2
	c0.8,0.3,2,0.7,3.5,1.1l2.6,0.6c4.4,1.2,7.5,2.7,9.5,4.5c2,1.8,2.9,4.2,2.9,7.1c0,2.2-0.6,4.1-1.7,5.8s-2.8,3.1-5,4
	c-2.2,1-5,1.5-8.2,1.5C81.5,89.2,78.6,88.8,76,88z"/>
<path class="st0" d="M127.2,86.8c-3.1,1.6-6.3,2.4-9.6,2.4c-2.1,0-3.9-0.4-5.6-1.2c-1.7-0.8-3-2.1-3.9-3.8s-1.4-3.8-1.4-6.4V59.5
	h-6.8v-6.8h6.8v-8l8.6-1.3v9.3h11l-0.9,6.8h-10.2v17c0,2,0.4,3.4,1.1,4.3c0.7,0.9,1.8,1.4,3.2,1.4c0.8,0,1.6-0.1,2.4-0.3
	s1.8-0.5,2.9-1L127.2,86.8z"/>
<path class="st0" d="M156.4,54.4c2.2,1.9,3.3,4.9,3.3,9v24.8h-7.5l-0.6-3c-2,1.4-4,2.5-6,3.1c-2.1,0.6-4.2,0.9-6.4,0.9
	c-2.1,0-4-0.4-5.6-1.2c-1.6-0.8-2.9-1.9-3.8-3.4c-0.9-1.5-1.4-3.2-1.4-5.1c0-2.9,1-5.3,3-7.2c2-1.9,4.7-3.4,8.2-4.4
	c3.4-1,7.3-1.5,11.5-1.6v-1.4c0-2.3-0.4-3.9-1.3-5s-2.3-1.5-4.5-1.5c-3.7,0-7.6,1.4-11.8,4.1l-3.5-5.5c2.6-1.8,5.2-3.2,7.9-4.1
	c2.7-0.9,5.6-1.4,8.7-1.4C151,51.6,154.2,52.5,156.4,54.4z M138.5,81.5c0.8,0.7,1.9,1,3.4,1c3,0,6.1-0.9,9.2-2.7v-7.7
	c-4.3,0.2-7.7,0.9-10.1,2c-2.4,1.1-3.7,2.6-3.7,4.5C137.3,79.8,137.7,80.8,138.5,81.5z"/>
<path d="M170.1,85c-3.2-2.8-4.8-7.4-4.8-13.7c0-4.5,0.9-8.2,2.6-11.2c1.8-3,4-5.1,6.8-6.5c2.8-1.4,5.7-2,8.8-2c2,0,3.9,0.3,5.7,0.8
	c1.8,0.5,3.8,1.3,5.9,2.4l-3.1,6.1c-1.8-0.9-3.3-1.5-4.6-1.8c-1.3-0.3-2.6-0.5-3.9-0.5c-2.9,0-5.1,1.1-6.8,3.3
	c-1.7,2.2-2.5,5.3-2.5,9.4c0,7.3,3.1,10.9,9.2,10.9c1.7,0,3.2-0.3,4.6-0.8c1.4-0.5,2.9-1.3,4.6-2.2l3.2,5.8c-2,1.3-4.1,2.3-6.3,3.1
	c-2.2,0.8-4.6,1.2-7.1,1.2C177.4,89.2,173.2,87.8,170.1,85z"/>
<path d="M205.5,86.7c-2.6-1.7-4.6-3.9-5.9-6.8c-1.3-2.9-2-6-2-9.6c0-4.4,0.8-8,2.5-10.8c1.7-2.8,3.9-4.8,6.8-6
	c2.8-1.3,6-1.9,9.5-1.9c3.9,0,7.1,0.8,9.8,2.4c2.6,1.6,4.6,3.9,5.9,6.7c1.3,2.8,2,6.1,2,9.7c0,4.4-0.8,8-2.5,10.8
	c-1.7,2.8-3.9,4.8-6.8,6.1c-2.8,1.3-6,1.9-9.6,1.9C211.4,89.2,208.2,88.3,205.5,86.7z M223,79.2c1.4-2.2,2.1-5.1,2.1-8.9
	s-0.7-6.7-2.2-8.8s-3.7-3.2-6.8-3.2c-3.4,0-5.8,1-7.3,3.1s-2.2,5-2.2,8.9c0,3.7,0.8,6.7,2.3,8.9c1.5,2.2,3.8,3.3,6.9,3.3
	C219.2,82.5,221.6,81.4,223,79.2z"/>
<path d="M263.4,52.3l-1.4,8.8c-0.9-0.3-1.7-0.6-2.4-0.7c-0.7-0.2-1.6-0.2-2.5-0.2c-1.5,0-3,0.3-4.4,1c-1.4,0.7-2.7,2-4,3.9v23H240
	V52.7l8.6-0.8v5c1.3-1.8,2.8-3.1,4.5-4c1.7-0.9,3.6-1.4,5.6-1.4C260.2,51.6,261.8,51.8,263.4,52.3z"/>
<path d="M295.5,53.9c2.2,1.5,3.8,3.6,4.8,6.3c1,2.7,1.6,5.8,1.6,9.3c0,4.3-0.9,8-2.6,10.9c-1.7,3-4,5.2-6.8,6.6
	c-2.8,1.4-5.9,2.2-9.3,2.2c-2.1,0-4.4-0.3-6.9-1V103h-8.6V52.8l8.6-0.9V55c1.8-1.1,3.7-2,5.5-2.6c1.9-0.6,3.7-0.9,5.4-0.9
	C290.6,51.6,293.3,52.3,295.5,53.9z M290,79.3c2-2.2,2.9-5.4,2.9-9.8c0-3.9-0.7-6.7-2.1-8.4c-1.4-1.7-3.4-2.6-6.2-2.6
	c-2.6,0-5.4,0.8-8.3,2.5v20.8c2,0.5,4,0.8,5.8,0.8C285.4,82.6,288,81.5,290,79.3z"/>
</svg>
